<?xml version="1.0" encoding="UTF-8"?>
<svg width="36px" height="36px" viewBox="0 0 36 36" version="1.1" xmlns="http://www.w3.org/2000/svg" xmlns:xlink="http://www.w3.org/1999/xlink">
    <!-- Generator: Sketch 55.2 (78181) - https://sketchapp.com -->
    <title>MinusOne</title>
    <desc>Created with Sketch.</desc>
    <g id="MinusOne" stroke="none" stroke-width="1" fill="none" fill-rule="evenodd">
        <g id="31-20e3-copy" fill="#BE1931" fill-rule="nonzero">
            <path d="M36,32 C36,34.209 34.209,36 32,36 L4,36 C1.791,36 0,34.209 0,32 L0,4 C0,1.791 1.791,0 4,0 L32,0 C34.209,0 36,1.791 36,4 L36,32 Z" id="Path"></path>
        </g>
        <g id="2796" transform="translate(4.000000, 16.000000)" fill="#FFFFFF" fill-rule="nonzero">
            <path d="M16,1.75 C16,2.71658333 15.3285,3.5 14.5,3.5 L1.5,3.5 C0.6715,3.5 0,2.71658333 0,1.75 C0,0.783416667 0.6715,0 1.5,0 L14.5,0 C15.3285,0 16,0.783416667 16,1.75 Z" id="Path"></path>
        </g>
        <path d="M26.1503335,12.4239972 L24.6867927,12.4239972 C23.4961155,12.4239972 23,11.5557951 23,10.7123987 C23,9.84419655 23.6201444,9 24.6867927,9 L28.2092129,9 C29.2766614,9 29.872,9.76897904 29.872,10.7612101 L29.872,24.8788971 C29.872,26.119986 29.0782152,26.8137476 28.0107667,26.8137476 C26.9441183,26.8137476 26.1503335,26.119986 26.1503335,24.8788971 L26.1503335,12.4239972 Z" id="Path" fill="#FFFFFF" fill-rule="nonzero"></path>
    </g>
</svg>