<?xml version="1.0" encoding="UTF-8"?>
<svg width="36px" height="36px" viewBox="0 0 36 36" version="1.1" xmlns="http://www.w3.org/2000/svg" xmlns:xlink="http://www.w3.org/1999/xlink">
    <!-- Generator: Sketch 55.2 (78181) - https://sketchapp.com -->
    <title>TwentyFour</title>
    <desc>Created with Sketch.</desc>
    <g id="TwentyFour" stroke="none" stroke-width="1" fill="none" fill-rule="evenodd">
        <g id="1f51f" fill="#3B88C3" fill-rule="nonzero">
            <path d="M36,32 C36,34.209 34.209,36 32,36 L4,36 C1.791,36 0,34.209 0,32 L0,4 C0,1.791 1.791,0 4,0 L32,0 C34.209,0 36,1.791 36,4 L36,32 Z" id="Path"></path>
        </g>
        <path d="M18,26.9027574 C18,28.3647824 16.9454921,29 15.7680416,29 L5.41687213,29 C4.05350836,29 3,28.3647824 3,26.9027574 C3,26.2368034 3.40281202,25.664083 3.71266742,25.2829525 C6.28446725,22.1386253 9.07416539,19.2791216 11.430066,15.7844002 C11.9878057,14.9586173 12.5145599,13.9730055 12.5145599,12.8296138 C12.5145599,11.5274177 11.5540081,10.384026 10.2826015,10.384026 C6.71826481,10.384026 8.42346905,15.5303132 5.44785767,15.5303132 C3.96055174,15.5303132 3.18491371,14.4504432 3.18491371,13.2107444 C3.18491371,9.20887345 6.65629373,6 10.4685147,6 C14.2817352,6 17.3483041,8.57365584 17.3483041,12.6072876 C17.3483041,17.02205 12.5455454,21.4071005 9.91077497,24.8055147 L15.5811288,24.8055147 C16.9454921,24.8065393 18,25.4417569 18,26.9027574 Z" id="Path" fill="#FFFFFF" fill-rule="nonzero"></path>
        <path d="M20.0660518,23.8634858 C18.6198155,23.8634858 18,22.8250055 18,22.0049923 C18,21.3119947 18.2361202,20.9329799 18.4132104,20.6189971 L25.0264802,7.82699359 C25.6758108,6.56699801 26.5022315,6 28.0370128,6 C29.7498364,6 31.4321928,7.16549591 31.4321928,10.033002 L31.4321928,19.7055003 L31.9339482,19.7055003 C33.0850342,19.7055003 34,20.5255136 34,21.7855092 C34,23.0455047 33.0850342,23.8645019 31.9339482,23.8645019 L31.4321928,23.8645019 L31.4321928,26.5430086 C31.4321928,28.2135189 30.8123773,29 29.307111,29 C27.8018447,29 27.1810771,28.2135189 27.1810771,26.5430086 L27.1810771,23.8645019 L20.0660518,23.8645019 L20.0660518,23.8634858 Z M27.643,10.837 L27.581,10.837 L23.395,19.487 L27.643,19.487 L27.643,10.837 Z" id="Shape" fill="#FFFFFF" fill-rule="nonzero"></path>
    </g>
</svg>