<?xml version="1.0" encoding="UTF-8"?>
<svg width="3039px" height="900px" viewBox="0 0 3039 900" version="1.1" xmlns="http://www.w3.org/2000/svg" xmlns:xlink="http://www.w3.org/1999/xlink">
    <!-- Generator: Sketch 51.3 (57544) - http://www.bohemiancoding.com/sketch -->
    <title>logo-svg-text</title>
    <desc>Created with Sketch.</desc>
    <defs></defs>
    <g id="logo-svg-text" stroke="none" stroke-width="1" fill="none" fill-rule="evenodd">
        <path d="M336.037961,0 L900,0 L611.396204,865.811388 C604.590502,886.228495 585.483559,900 563.962039,900 L0,900 L288.603796,34.1886117 C295.409498,13.7715047 314.516441,-2.44682703e-14 336.037961,-2.84217094e-14 Z M450,535.009815 L555.801345,595.623059 L530.849139,476.269478 L621.190173,394.376941 L499.967516,381.225615 L450,270 L400.032484,381.225615 L278.809827,394.376941 L369.150861,476.269478 L344.198655,595.623059 L450,535.009815 Z" id="Combined-Shape" fill="#212121" fill-rule="nonzero"></path>
        <path d="M1355.74194,667.451613 L1249.48387,667.451613 L1249.48387,498.774194 L1082.54839,498.774194 L1082.54839,667.451613 L976,667.451613 L976,248.516129 L1082.54839,248.516129 L1082.54839,412.83871 L1249.48387,412.83871 L1249.48387,248.516129 L1355.74194,248.516129 L1355.74194,667.451613 Z M1562.99742,675 C1463.41677,675 1401.28774,614.612903 1401.28774,509.225806 C1401.28774,405.870968 1464.86839,343.741935 1562.99742,343.741935 C1661.7071,343.741935 1724.7071,405.580645 1724.7071,509.225806 C1724.7071,614.903226 1662.57806,675 1562.99742,675 Z M1562.99742,599.516129 C1598.12645,599.516129 1620.48129,567.290323 1620.48129,509.516129 C1620.48129,452.612903 1598.12645,419.225806 1562.99742,419.225806 C1528.15871,419.225806 1505.80387,452.612903 1505.80387,509.516129 C1505.80387,567.290323 1527.57806,599.516129 1562.99742,599.516129 Z M1757.76903,447.096774 C1757.76903,383.806452 1811.76903,343.741935 1898.86581,343.741935 C1985.09161,343.741935 2038.80129,384.677419 2039.38194,450 L1945.31742,450 C1944.44645,427.354839 1926.44645,413.129032 1897.99484,413.129032 C1872.73677,413.129032 1856.47871,424.16129 1856.47871,440.419355 C1856.47871,452.903226 1868.09161,461.903226 1891.89806,466.83871 L1958.09161,480.193548 C2021.09161,493.548387 2048.09161,519.387097 2048.09161,567.290323 C2048.09161,632.903226 1988.57548,675 1900.31742,675 C1807.99484,675 1754.57548,632.903226 1750.22065,568.16129 L1850.09161,568.16129 C1852.99484,591.677419 1871.86581,605.612903 1902.05935,605.612903 C1929.34968,605.612903 1946.18839,595.741935 1946.18839,578.903226 C1946.18839,566.129032 1936.60774,558.870968 1911.93032,553.645161 L1852.12387,541.16129 C1790.28516,528.096774 1757.76903,495.580645 1757.76903,447.096774 Z M2084.92774,667.451613 L2084.92774,248.516129 L2185.66968,248.516129 L2185.66968,410.806452 L2187.70194,410.806452 C2203.96,368.419355 2238.50839,345.193548 2286.70194,345.193548 C2357.25032,345.193548 2396.44387,389.903226 2396.44387,464.516129 L2396.44387,667.451613 L2293.66968,667.451613 L2293.66968,486.870968 C2293.66968,451.16129 2275.96,429.096774 2241.99226,429.096774 C2207.44387,429.096774 2187.99226,453.774194 2187.99226,489.193548 L2187.99226,667.451613 L2084.92774,667.451613 Z M2444.02194,667.451613 L2444.02194,351.290323 L2546.79613,351.290323 L2546.79613,667.451613 L2444.02194,667.451613 Z M2495.40903,325.741935 C2465.50581,325.741935 2442.57032,303.677419 2442.57032,275.225806 C2442.57032,246.774194 2465.50581,225 2495.40903,225 C2525.31226,225 2547.95742,246.774194 2547.95742,275.225806 C2547.95742,303.677419 2525.31226,325.741935 2495.40903,325.741935 Z M2726.47097,601.258065 C2757.82581,601.258065 2785.11613,582.096774 2785.11613,553.935484 L2785.11613,532.16129 L2727.63226,535.935484 C2700.63226,537.967742 2685.53548,550.451613 2685.53548,569.032258 C2685.53548,589.064516 2702.08387,601.258065 2726.47097,601.258065 Z M2689.89032,672.096774 C2631.24516,672.096774 2583.63226,633.193548 2583.63226,576 C2583.63226,516.774194 2629.2129,483.677419 2711.08387,478.741935 L2785.11613,474.387097 L2785.11613,456.387097 C2785.11613,431.129032 2767.11613,417.193548 2740.11613,417.193548 C2712.24516,417.193548 2694.53548,431.709677 2691.63226,451.16129 L2599.01935,451.16129 C2601.92258,386.419355 2657.08387,343.741935 2745.34194,343.741935 C2829.82581,343.741935 2885.85806,387 2885.85806,450.580645 L2885.85806,667.451613 L2785.69677,667.451613 L2785.69677,622.451613 L2783.66452,622.451613 C2766.53548,654.387097 2727.92258,672.096774 2689.89032,672.096774 Z M2934.3071,667.451613 L2934.3071,351.290323 L3037.08129,351.290323 L3037.08129,667.451613 L2934.3071,667.451613 Z M2985.69419,325.741935 C2955.79097,325.741935 2932.85548,303.677419 2932.85548,275.225806 C2932.85548,246.774194 2955.79097,225 2985.69419,225 C3015.59742,225 3038.24258,246.774194 3038.24258,275.225806 C3038.24258,303.677419 3015.59742,325.741935 2985.69419,325.741935 Z" id="Hoshiai" fill="#212121"></path>
    </g>
</svg>