<?xml version="1.0" encoding="UTF-8"?>
<svg width="2962px" height="900px" viewBox="0 0 2962 900" version="1.1" xmlns="http://www.w3.org/2000/svg" xmlns:xlink="http://www.w3.org/1999/xlink">
    <!-- Generator: Sketch 51.3 (57544) - http://www.bohemiancoding.com/sketch -->
    <title>logo-svg-text</title>
    <desc>Created with Sketch.</desc>
    <defs></defs>
    <g id="logo-svg-text" stroke="none" stroke-width="1" fill="none" fill-rule="evenodd">
        <path d="M336.037961,0 L900,0 L611.396204,865.811388 C604.590502,886.228495 585.483559,900 563.962039,900 L0,900 L288.603796,34.1886117 C295.409498,13.7715047 314.516441,-2.44682703e-14 336.037961,-2.84217094e-14 Z M450,535.009815 L555.801345,595.623059 L530.849139,476.269478 L621.190173,394.376941 L499.967516,381.225615 L450,270 L400.032484,381.225615 L278.809827,394.376941 L369.150861,476.269478 L344.198655,595.623059 L450,535.009815 Z" id="Combined-Shape" fill="#212121" fill-rule="nonzero"></path>
        <path d="M1359.74194,667.451613 L1253.48387,667.451613 L1253.48387,498.774194 L1086.54839,498.774194 L1086.54839,667.451613 L980,667.451613 L980,248.516129 L1086.54839,248.516129 L1086.54839,412.83871 L1253.48387,412.83871 L1253.48387,248.516129 L1359.74194,248.516129 L1359.74194,667.451613 Z M1553.61935,675 C1454.03871,675 1391.90968,614.612903 1391.90968,509.225806 C1391.90968,405.870968 1455.49032,343.741935 1553.61935,343.741935 C1652.32903,343.741935 1715.32903,405.580645 1715.32903,509.225806 C1715.32903,614.903226 1653.2,675 1553.61935,675 Z M1553.61935,599.516129 C1588.74839,599.516129 1611.10323,567.290323 1611.10323,509.516129 C1611.10323,452.612903 1588.74839,419.225806 1553.61935,419.225806 C1518.78065,419.225806 1496.42581,452.612903 1496.42581,509.516129 C1496.42581,567.290323 1518.2,599.516129 1553.61935,599.516129 Z M1735.0129,447.096774 C1735.0129,383.806452 1789.0129,343.741935 1876.10968,343.741935 C1962.33548,343.741935 2016.04516,384.677419 2016.62581,450 L1922.56129,450 C1921.69032,427.354839 1903.69032,413.129032 1875.23871,413.129032 C1849.98065,413.129032 1833.72258,424.16129 1833.72258,440.419355 C1833.72258,452.903226 1845.33548,461.903226 1869.14194,466.83871 L1935.33548,480.193548 C1998.33548,493.548387 2025.33548,519.387097 2025.33548,567.290323 C2025.33548,632.903226 1965.81935,675 1877.56129,675 C1785.23871,675 1731.81935,632.903226 1727.46452,568.16129 L1827.33548,568.16129 C1830.23871,591.677419 1849.10968,605.612903 1879.30323,605.612903 C1906.59355,605.612903 1923.43226,595.741935 1923.43226,578.903226 C1923.43226,566.129032 1913.85161,558.870968 1889.17419,553.645161 L1829.36774,541.16129 C1767.52903,528.096774 1735.0129,495.580645 1735.0129,447.096774 Z M2048.79355,667.451613 L2048.79355,248.516129 L2149.53548,248.516129 L2149.53548,410.806452 L2151.56774,410.806452 C2167.82581,368.419355 2202.37419,345.193548 2250.56774,345.193548 C2321.11613,345.193548 2360.30968,389.903226 2360.30968,464.516129 L2360.30968,667.451613 L2257.53548,667.451613 L2257.53548,486.870968 C2257.53548,451.16129 2239.82581,429.096774 2205.85806,429.096774 C2171.30968,429.096774 2151.85806,453.774194 2151.85806,489.193548 L2151.85806,667.451613 L2048.79355,667.451613 Z M2394.50968,667.451613 L2394.50968,351.290323 L2497.28387,351.290323 L2497.28387,667.451613 L2394.50968,667.451613 Z M2445.89677,325.741935 C2415.99355,325.741935 2393.05806,303.677419 2393.05806,275.225806 C2393.05806,246.774194 2415.99355,225 2445.89677,225 C2475.8,225 2498.44516,246.774194 2498.44516,275.225806 C2498.44516,303.677419 2475.8,325.741935 2445.89677,325.741935 Z M2663.58065,601.258065 C2694.93548,601.258065 2722.22581,582.096774 2722.22581,553.935484 L2722.22581,532.16129 L2664.74194,535.935484 C2637.74194,537.967742 2622.64516,550.451613 2622.64516,569.032258 C2622.64516,589.064516 2639.19355,601.258065 2663.58065,601.258065 Z M2627,672.096774 C2568.35484,672.096774 2520.74194,633.193548 2520.74194,576 C2520.74194,516.774194 2566.32258,483.677419 2648.19355,478.741935 L2722.22581,474.387097 L2722.22581,456.387097 C2722.22581,431.129032 2704.22581,417.193548 2677.22581,417.193548 C2649.35484,417.193548 2631.64516,431.709677 2628.74194,451.16129 L2536.12903,451.16129 C2539.03226,386.419355 2594.19355,343.741935 2682.45161,343.741935 C2766.93548,343.741935 2822.96774,387 2822.96774,450.580645 L2822.96774,667.451613 L2722.80645,667.451613 L2722.80645,622.451613 L2720.77419,622.451613 C2703.64516,654.387097 2665.03226,672.096774 2627,672.096774 Z M2858.03871,667.451613 L2858.03871,351.290323 L2960.8129,351.290323 L2960.8129,667.451613 L2858.03871,667.451613 Z M2909.42581,325.741935 C2879.52258,325.741935 2856.5871,303.677419 2856.5871,275.225806 C2856.5871,246.774194 2879.52258,225 2909.42581,225 C2939.32903,225 2961.97419,246.774194 2961.97419,275.225806 C2961.97419,303.677419 2939.32903,325.741935 2909.42581,325.741935 Z" id="Hoshiai-Copy" fill="#212121"></path>
    </g>
</svg>