<?xml version="1.0" encoding="UTF-8"?>
<svg width="2163px" height="1000px" viewBox="0 0 2163 1000" version="1.1" xmlns="http://www.w3.org/2000/svg" xmlns:xlink="http://www.w3.org/1999/xlink">
    <!-- Generator: Sketch 52.5 (67469) - http://www.bohemiancoding.com/sketch -->
    <title>CSmoji-Logo</title>
    <desc>Created with Sketch.</desc>
    <g id="CSmoji-Logo" stroke="none" stroke-width="1" fill="none" fill-rule="evenodd">
        <circle id="Oval" fill="#3F51B5" fill-rule="nonzero" cx="500" cy="500" r="500"></circle>
        <path d="M359.5,682 C259.5,682 179,605.5 179,501 L179,500 C179,398 257.5,318 363.5,318 C435,318 481,348 512,391 L439,447.5 C419,422.5 396,406.5 362.5,406.5 C313.5,406.5 279,448 279,499 L279,500 C279,552.5 313.5,593.5 362.5,593.5 C399,593.5 420.5,576.5 441.5,551 L514.5,603 C481.5,648.5 437,682 359.5,682 Z M683.5,681 C621.5,681 562.5,661.5 519.5,623 L573.5,558.5 C608,586 646.5,600.5 687,600.5 C713,600.5 727,591.5 727,576.5 L727,575.5 C727,561 715.5,553 668,542 C593.5,525 536,504 536,432 L536,431 C536,366 587.5,319 671.5,319 C731,319 777.5,335 815.5,365.5 L767,434 C735,411.5 700,399.5 669,399.5 C645.5,399.5 634,409.5 634,422 L634,423 C634,439 646,446 694.5,457 C775,474.5 825,500.5 825,566 L825,567 C825,638.5 768.5,681 683.5,681 Z" id="CS-moji-Copy" fill="#FFFFFF"></path>
        <g id="Group-2" transform="translate(1099.000000, 310.000000)" fill="#3F51B5">
            <path d="M0,365 L0,94.5 L95,94.5 L95,131.5 C112.5,109 137.5,88.5 175.5,88.5 C211.5,88.5 239,104.5 253.5,132.5 C277,105.5 304.5,88.5 344,88.5 C401.5,88.5 436.5,124.5 436.5,187.5 L436.5,365 L341.5,365 L341.5,218 C341.5,188.5 327,173 304.5,173 C282,173 265.5,188.5 265.5,218 L265.5,365 L170.5,365 L170.5,218 C170.5,188.5 156,173 133.5,173 C111,173 95,188.5 95,218 L95,365 L0,365 Z M623.5,371.5 C537,371.5 474.5,308 474.5,231 L474.5,230 C474.5,153 537.5,88.5 624.5,88.5 C711,88.5 773.5,152 773.5,229 L773.5,230 C773.5,307 710.5,371.5 623.5,371.5 Z M624.5,291 C659,291 681,263.5 681,231 L681,230 C681,197 657,169 623.5,169 C589,169 567,196.5 567,229 L567,230 C567,263 591,291 624.5,291 Z M813.5,70 L813.5,0 L912.5,0 L912.5,70 L813.5,70 Z M814,446.5 C799,446.5 786.5,444.5 775,443 L775,380 C779,380.5 783.5,380.5 787.5,380.5 C806,380.5 815.5,372.5 815.5,349 L815.5,94.5 L910.5,94.5 L910.5,353 C910.5,421.5 875.5,446.5 814,446.5 Z M964.5,70 L964.5,0 L1063.5,0 L1063.5,70 L964.5,70 Z M966.5,365 L966.5,94.5 L1061.5,94.5 L1061.5,365 L966.5,365 Z" id="Combined-Shape"></path>
        </g>
    </g>
</svg>