<?xml version="1.0" encoding="UTF-8"?>
<svg width="150px" height="150px" viewBox="0 0 150 150" version="1.1" xmlns="http://www.w3.org/2000/svg" xmlns:xlink="http://www.w3.org/1999/xlink">
    <!-- Generator: Sketch 52.2 (67145) - http://www.bohemiancoding.com/sketch -->
    <title>devil.url</title>
    <desc>Created with Sketch.</desc>
    <g id="devil.url" stroke="none" stroke-width="1" fill="none" fill-rule="evenodd">
        <rect fill="#FFFFFF" x="0" y="0" width="150" height="150"></rect>
        <g id="1f608" opacity="0.2" transform="translate(48.000000, 48.000000)">
            <circle id="Oval" fill="#AA8DD8" cx="27" cy="27" r="27"></circle>
            <path d="M15,6 C11.13,6 6.5535,2.301 5.121,0.879 C4.2645,0.021 2.9715,-0.2355 1.8525,0.2295 C0.7305,0.693 0,1.7865 0,3 C0,8.1885 2.508,18 12,18 C13.1355,18 14.175,17.358 14.6835,16.341 L17.6835,10.341 C18.1485,9.411 18.099,8.307 17.5515,7.422 C17.0055,6.5385 16.0395,6 15,6 Z M52.149,0.2295 C51.024,-0.237 49.7385,0.021 48.879,0.8805 C47.55,2.208 42.8835,6 39,6 C37.9605,6 36.9945,6.5385 36.4485,7.4235 C35.9025,8.307 35.853,9.4125 36.3165,10.3425 L39.3165,16.3425 C39.825,17.358 40.863,18 42,18 C51.492,18 54,8.1885 54,3 C54,1.7865 53.2695,0.693 52.149,0.2295 Z" id="Shape" fill="#AA8DD8" fill-rule="nonzero"></path>
            <path d="M41.0025,38.4435 C40.7355,38.202 40.3365,38.187 40.05,38.4 C39.9915,38.4435 34.167,42.75 27,42.75 C19.851,42.75 14.007,38.4435 13.95,38.4 C13.6635,38.187 13.2645,38.205 12.9975,38.4435 C12.732,38.6835 12.672,39.0795 12.8565,39.3855 C13.05,39.708 17.682,47.25 27,47.25 C36.318,47.25 40.9515,39.708 41.1435,39.3855 C41.328,39.078 41.2695,38.6835 41.0025,38.4435 Z M23.5605,27.4395 C18.678,22.557 10.8315,22.5 10.5,22.5 C9.672,22.5 9.0015,23.1705 9.0015,23.997 C9,24.825 9.6705,25.4985 10.4985,25.5 C10.542,25.5 13.386,25.533 16.473,26.6055 C15.5835,27.5655 15,29.0565 15,30.75 C15,33.651 16.6785,36 18.75,36 C20.8215,36 22.5,33.651 22.5,30.75 C22.5,30.489 22.4715,30.24 22.4445,29.9895 C22.464,29.9895 22.482,30 22.5,30 C22.884,30 23.268,29.853 23.5605,29.5605 C24.147,28.974 24.147,28.026 23.5605,27.4395 Z M43.5,22.5 C43.1685,22.5 35.3235,22.557 30.4395,27.4395 C29.853,28.026 29.853,28.974 30.4395,29.5605 C30.732,29.853 31.116,30 31.5,30 C31.5195,30 31.536,29.9895 31.554,29.9895 C31.53,30.24 31.5,30.489 31.5,30.75 C31.5,33.651 33.1785,36 35.25,36 C37.3215,36 39,33.651 39,30.75 C39,29.0565 38.4165,27.5655 37.527,26.6055 C40.614,25.533 43.458,25.5 43.503,25.5 C44.3295,25.4985 45,24.825 44.9985,23.997 C44.997,23.1705 44.328,22.5 43.5,22.5 Z" id="Shape" fill="#553986" fill-rule="nonzero"></path>
        </g>
        <g id="1f608" opacity="0.2" transform="translate(-27.000000, -27.000000)">
            <circle id="Oval" fill="#AA8DD8" cx="27" cy="27" r="27"></circle>
            <path d="M41.0025,38.4435 C40.7355,38.202 40.3365,38.187 40.05,38.4 C39.9915,38.4435 34.167,42.75 27,42.75 C19.851,42.75 14.007,38.4435 13.95,38.4 C13.6635,38.187 13.2645,38.205 12.9975,38.4435 C12.732,38.6835 12.672,39.0795 12.8565,39.3855 C13.05,39.708 17.682,47.25 27,47.25 C36.318,47.25 40.9515,39.708 41.1435,39.3855 C41.328,39.078 41.2695,38.6835 41.0025,38.4435 Z M23.5605,27.4395 C18.678,22.557 10.8315,22.5 10.5,22.5 C9.672,22.5 9.0015,23.1705 9.0015,23.997 C9,24.825 9.6705,25.4985 10.4985,25.5 C10.542,25.5 13.386,25.533 16.473,26.6055 C15.5835,27.5655 15,29.0565 15,30.75 C15,33.651 16.6785,36 18.75,36 C20.8215,36 22.5,33.651 22.5,30.75 C22.5,30.489 22.4715,30.24 22.4445,29.9895 C22.464,29.9895 22.482,30 22.5,30 C22.884,30 23.268,29.853 23.5605,29.5605 C24.147,28.974 24.147,28.026 23.5605,27.4395 Z M43.5,22.5 C43.1685,22.5 35.3235,22.557 30.4395,27.4395 C29.853,28.026 29.853,28.974 30.4395,29.5605 C30.732,29.853 31.116,30 31.5,30 C31.5195,30 31.536,29.9895 31.554,29.9895 C31.53,30.24 31.5,30.489 31.5,30.75 C31.5,33.651 33.1785,36 35.25,36 C37.3215,36 39,33.651 39,30.75 C39,29.0565 38.4165,27.5655 37.527,26.6055 C40.614,25.533 43.458,25.5 43.503,25.5 C44.3295,25.4985 45,24.825 44.9985,23.997 C44.997,23.1705 44.328,22.5 43.5,22.5 Z" id="Shape" fill="#553986" fill-rule="nonzero"></path>
        </g>
        <g id="1f608-copy" opacity="0.2" transform="translate(123.000000, -27.000000)">
            <circle id="Oval" fill="#AA8DD8" cx="27" cy="27" r="27"></circle>
            <path d="M41.0025,38.4435 C40.7355,38.202 40.3365,38.187 40.05,38.4 C39.9915,38.4435 34.167,42.75 27,42.75 C19.851,42.75 14.007,38.4435 13.95,38.4 C13.6635,38.187 13.2645,38.205 12.9975,38.4435 C12.732,38.6835 12.672,39.0795 12.8565,39.3855 C13.05,39.708 17.682,47.25 27,47.25 C36.318,47.25 40.9515,39.708 41.1435,39.3855 C41.328,39.078 41.2695,38.6835 41.0025,38.4435 Z M23.5605,27.4395 C18.678,22.557 10.8315,22.5 10.5,22.5 C9.672,22.5 9.0015,23.1705 9.0015,23.997 C9,24.825 9.6705,25.4985 10.4985,25.5 C10.542,25.5 13.386,25.533 16.473,26.6055 C15.5835,27.5655 15,29.0565 15,30.75 C15,33.651 16.6785,36 18.75,36 C20.8215,36 22.5,33.651 22.5,30.75 C22.5,30.489 22.4715,30.24 22.4445,29.9895 C22.464,29.9895 22.482,30 22.5,30 C22.884,30 23.268,29.853 23.5605,29.5605 C24.147,28.974 24.147,28.026 23.5605,27.4395 Z M43.5,22.5 C43.1685,22.5 35.3235,22.557 30.4395,27.4395 C29.853,28.026 29.853,28.974 30.4395,29.5605 C30.732,29.853 31.116,30 31.5,30 C31.5195,30 31.536,29.9895 31.554,29.9895 C31.53,30.24 31.5,30.489 31.5,30.75 C31.5,33.651 33.1785,36 35.25,36 C37.3215,36 39,33.651 39,30.75 C39,29.0565 38.4165,27.5655 37.527,26.6055 C40.614,25.533 43.458,25.5 43.503,25.5 C44.3295,25.4985 45,24.825 44.9985,23.997 C44.997,23.1705 44.328,22.5 43.5,22.5 Z" id="Shape" fill="#553986" fill-rule="nonzero"></path>
        </g>
        <g id="1f608-copy-2" opacity="0.2" transform="translate(123.000000, 123.000000)">
            <circle id="Oval" fill="#AA8DD8" cx="27" cy="27" r="27"></circle>
            <path d="M15,6 C11.13,6 6.5535,2.301 5.121,0.879 C4.2645,0.021 2.9715,-0.2355 1.8525,0.2295 C0.7305,0.693 0,1.7865 0,3 C0,8.1885 2.508,18 12,18 C13.1355,18 14.175,17.358 14.6835,16.341 L17.6835,10.341 C18.1485,9.411 18.099,8.307 17.5515,7.422 C17.0055,6.5385 16.0395,6 15,6 Z M52.149,0.2295 C51.024,-0.237 49.7385,0.021 48.879,0.8805 C47.55,2.208 42.8835,6 39,6 C37.9605,6 36.9945,6.5385 36.4485,7.4235 C35.9025,8.307 35.853,9.4125 36.3165,10.3425 L39.3165,16.3425 C39.825,17.358 40.863,18 42,18 C51.492,18 54,8.1885 54,3 C54,1.7865 53.2695,0.693 52.149,0.2295 Z" id="Shape" fill="#AA8DD8" fill-rule="nonzero"></path>
            <path d="M41.0025,38.4435 C40.7355,38.202 40.3365,38.187 40.05,38.4 C39.9915,38.4435 34.167,42.75 27,42.75 C19.851,42.75 14.007,38.4435 13.95,38.4 C13.6635,38.187 13.2645,38.205 12.9975,38.4435 C12.732,38.6835 12.672,39.0795 12.8565,39.3855 C13.05,39.708 17.682,47.25 27,47.25 C36.318,47.25 40.9515,39.708 41.1435,39.3855 C41.328,39.078 41.2695,38.6835 41.0025,38.4435 Z M23.5605,27.4395 C18.678,22.557 10.8315,22.5 10.5,22.5 C9.672,22.5 9.0015,23.1705 9.0015,23.997 C9,24.825 9.6705,25.4985 10.4985,25.5 C10.542,25.5 13.386,25.533 16.473,26.6055 C15.5835,27.5655 15,29.0565 15,30.75 C15,33.651 16.6785,36 18.75,36 C20.8215,36 22.5,33.651 22.5,30.75 C22.5,30.489 22.4715,30.24 22.4445,29.9895 C22.464,29.9895 22.482,30 22.5,30 C22.884,30 23.268,29.853 23.5605,29.5605 C24.147,28.974 24.147,28.026 23.5605,27.4395 Z M43.5,22.5 C43.1685,22.5 35.3235,22.557 30.4395,27.4395 C29.853,28.026 29.853,28.974 30.4395,29.5605 C30.732,29.853 31.116,30 31.5,30 C31.5195,30 31.536,29.9895 31.554,29.9895 C31.53,30.24 31.5,30.489 31.5,30.75 C31.5,33.651 33.1785,36 35.25,36 C37.3215,36 39,33.651 39,30.75 C39,29.0565 38.4165,27.5655 37.527,26.6055 C40.614,25.533 43.458,25.5 43.503,25.5 C44.3295,25.4985 45,24.825 44.9985,23.997 C44.997,23.1705 44.328,22.5 43.5,22.5 Z" id="Shape" fill="#553986" fill-rule="nonzero"></path>
        </g>
        <g id="1f608-copy-3" opacity="0.2" transform="translate(-27.000000, 123.000000)">
            <circle id="Oval" fill="#AA8DD8" cx="27" cy="27" r="27"></circle>
            <path d="M15,6 C11.13,6 6.5535,2.301 5.121,0.879 C4.2645,0.021 2.9715,-0.2355 1.8525,0.2295 C0.7305,0.693 0,1.7865 0,3 C0,8.1885 2.508,18 12,18 C13.1355,18 14.175,17.358 14.6835,16.341 L17.6835,10.341 C18.1485,9.411 18.099,8.307 17.5515,7.422 C17.0055,6.5385 16.0395,6 15,6 Z M52.149,0.2295 C51.024,-0.237 49.7385,0.021 48.879,0.8805 C47.55,2.208 42.8835,6 39,6 C37.9605,6 36.9945,6.5385 36.4485,7.4235 C35.9025,8.307 35.853,9.4125 36.3165,10.3425 L39.3165,16.3425 C39.825,17.358 40.863,18 42,18 C51.492,18 54,8.1885 54,3 C54,1.7865 53.2695,0.693 52.149,0.2295 Z" id="Shape" fill="#AA8DD8" fill-rule="nonzero"></path>
            <path d="M41.0025,38.4435 C40.7355,38.202 40.3365,38.187 40.05,38.4 C39.9915,38.4435 34.167,42.75 27,42.75 C19.851,42.75 14.007,38.4435 13.95,38.4 C13.6635,38.187 13.2645,38.205 12.9975,38.4435 C12.732,38.6835 12.672,39.0795 12.8565,39.3855 C13.05,39.708 17.682,47.25 27,47.25 C36.318,47.25 40.9515,39.708 41.1435,39.3855 C41.328,39.078 41.2695,38.6835 41.0025,38.4435 Z M23.5605,27.4395 C18.678,22.557 10.8315,22.5 10.5,22.5 C9.672,22.5 9.0015,23.1705 9.0015,23.997 C9,24.825 9.6705,25.4985 10.4985,25.5 C10.542,25.5 13.386,25.533 16.473,26.6055 C15.5835,27.5655 15,29.0565 15,30.75 C15,33.651 16.6785,36 18.75,36 C20.8215,36 22.5,33.651 22.5,30.75 C22.5,30.489 22.4715,30.24 22.4445,29.9895 C22.464,29.9895 22.482,30 22.5,30 C22.884,30 23.268,29.853 23.5605,29.5605 C24.147,28.974 24.147,28.026 23.5605,27.4395 Z M43.5,22.5 C43.1685,22.5 35.3235,22.557 30.4395,27.4395 C29.853,28.026 29.853,28.974 30.4395,29.5605 C30.732,29.853 31.116,30 31.5,30 C31.5195,30 31.536,29.9895 31.554,29.9895 C31.53,30.24 31.5,30.489 31.5,30.75 C31.5,33.651 33.1785,36 35.25,36 C37.3215,36 39,33.651 39,30.75 C39,29.0565 38.4165,27.5655 37.527,26.6055 C40.614,25.533 43.458,25.5 43.503,25.5 C44.3295,25.4985 45,24.825 44.9985,23.997 C44.997,23.1705 44.328,22.5 43.5,22.5 Z" id="Shape" fill="#553986" fill-rule="nonzero"></path>
        </g>
    </g>
</svg>