<?xml version="1.0" encoding="UTF-8"?>
<svg width="150px" height="150px" viewBox="0 0 150 150" version="1.1" xmlns="http://www.w3.org/2000/svg" xmlns:xlink="http://www.w3.org/1999/xlink">
    <!-- Generator: Sketch 55.2 (78181) - https://sketchapp.com -->
    <title>plusOne.url</title>
    <desc>Created with Sketch.</desc>
    <g id="plusOne.url" stroke="none" stroke-width="1" fill="none" fill-rule="evenodd">
        <rect fill="#FFFFF4" x="0" y="0" width="150" height="150"></rect>
        <g id="31-20e3" transform="translate(54.000000, 54.000000)" fill-rule="nonzero">
            <path d="M40,35.5555556 C40,38.01 38.01,40 35.5555556,40 L4.44444444,40 C1.99,40 0,38.01 0,35.5555556 L0,4.44444444 C0,1.99 1.99,0 4.44444444,0 L35.5555556,0 C38.01,0 40,1.99 40,4.44444444 L40,35.5555556 Z" id="Path" fill="#FDD835" opacity="0.8"></path>
            <path d="M29.0559261,13.8044413 L27.4297697,13.8044413 C26.106795,13.8044413 25.5555556,12.8397723 25.5555556,11.9026652 C25.5555556,10.9379962 26.2446049,10 27.4297697,10 L31.3435698,10 C32.5296238,10 33.1911111,10.8544212 33.1911111,11.9569001 L33.1911111,27.643219 C33.1911111,29.0222067 32.309128,29.7930528 31.1230741,29.7930528 C29.9379092,29.7930528 29.0559261,29.0222067 29.0559261,27.643219 L29.0559261,13.8044413 Z" id="Path" fill="#FFFFFF"></path>
            <g id="2795" transform="translate(4.444444, 11.111111)" fill="#FFFFFF">
                <path d="M16.1111111,7.22222222 L10.5555556,7.22222222 L10.5555556,1.66666667 C10.5555556,0.746111111 9.80944444,0 8.88888889,0 C7.96833333,0 7.22222222,0.746111111 7.22222222,1.66666667 L7.22222222,7.22222222 L1.66666667,7.22222222 C0.746111111,7.22222222 0,7.96833333 0,8.88888889 C0,9.80944444 0.746111111,10.5555556 1.66666667,10.5555556 L7.22222222,10.5555556 L7.22222222,16.1111111 C7.22222222,17.0316667 7.96833333,17.7777778 8.88888889,17.7777778 C9.80944444,17.7777778 10.5555556,17.0316667 10.5555556,16.1111111 L10.5555556,10.5555556 L16.1111111,10.5555556 C17.0316667,10.5555556 17.7777778,9.80944444 17.7777778,8.88888889 C17.7777778,7.96833333 17.0316667,7.22222222 16.1111111,7.22222222 Z" id="Path"></path>
            </g>
        </g>
        <g id="31-20e3-copy" transform="translate(130.000000, -20.000000)" fill-rule="nonzero">
            <path d="M40,35.5555556 C40,38.01 38.01,40 35.5555556,40 L4.44444444,40 C1.99,40 0,38.01 0,35.5555556 L0,4.44444444 C0,1.99 1.99,0 4.44444444,0 L35.5555556,0 C38.01,0 40,1.99 40,4.44444444 L40,35.5555556 Z" id="Path" fill="#FDD835" opacity="0.8"></path>
            <g id="2795" transform="translate(4.444444, 11.111111)" fill="#FFFFFF">
                <path d="M16.1111111,7.22222222 L10.5555556,7.22222222 L10.5555556,1.66666667 C10.5555556,0.746111111 9.80944444,0 8.88888889,0 C7.96833333,0 7.22222222,0.746111111 7.22222222,1.66666667 L7.22222222,7.22222222 L1.66666667,7.22222222 C0.746111111,7.22222222 0,7.96833333 0,8.88888889 C0,9.80944444 0.746111111,10.5555556 1.66666667,10.5555556 L7.22222222,10.5555556 L7.22222222,16.1111111 C7.22222222,17.0316667 7.96833333,17.7777778 8.88888889,17.7777778 C9.80944444,17.7777778 10.5555556,17.0316667 10.5555556,16.1111111 L10.5555556,10.5555556 L16.1111111,10.5555556 C17.0316667,10.5555556 17.7777778,9.80944444 17.7777778,8.88888889 C17.7777778,7.96833333 17.0316667,7.22222222 16.1111111,7.22222222 Z" id="Path"></path>
            </g>
        </g>
        <g id="31-20e3-copy-2" transform="translate(130.000000, 130.000000)" fill-rule="nonzero">
            <path d="M40,35.5555556 C40,38.01 38.01,40 35.5555556,40 L4.44444444,40 C1.99,40 0,38.01 0,35.5555556 L0,4.44444444 C0,1.99 1.99,0 4.44444444,0 L35.5555556,0 C38.01,0 40,1.99 40,4.44444444 L40,35.5555556 Z" id="Path" fill="#FDD835" opacity="0.8"></path>
            <g id="2795" transform="translate(4.444444, 11.111111)" fill="#FFFFFF">
                <path d="M16.1111111,7.22222222 L10.5555556,7.22222222 L10.5555556,1.66666667 C10.5555556,0.746111111 9.80944444,0 8.88888889,0 C7.96833333,0 7.22222222,0.746111111 7.22222222,1.66666667 L7.22222222,7.22222222 L1.66666667,7.22222222 C0.746111111,7.22222222 0,7.96833333 0,8.88888889 C0,9.80944444 0.746111111,10.5555556 1.66666667,10.5555556 L7.22222222,10.5555556 L7.22222222,16.1111111 C7.22222222,17.0316667 7.96833333,17.7777778 8.88888889,17.7777778 C9.80944444,17.7777778 10.5555556,17.0316667 10.5555556,16.1111111 L10.5555556,10.5555556 L16.1111111,10.5555556 C17.0316667,10.5555556 17.7777778,9.80944444 17.7777778,8.88888889 C17.7777778,7.96833333 17.0316667,7.22222222 16.1111111,7.22222222 Z" id="Path"></path>
            </g>
        </g>
        <g id="31-20e3-copy-3" transform="translate(-20.000000, 130.000000)" fill-rule="nonzero">
            <path d="M40,35.5555556 C40,38.01 38.01,40 35.5555556,40 L4.44444444,40 C1.99,40 0,38.01 0,35.5555556 L0,4.44444444 C0,1.99 1.99,0 4.44444444,0 L35.5555556,0 C38.01,0 40,1.99 40,4.44444444 L40,35.5555556 Z" id="Path" fill="#FDD835" opacity="0.8"></path>
            <path d="M29.0559261,13.8044413 L27.4297697,13.8044413 C26.106795,13.8044413 25.5555556,12.8397723 25.5555556,11.9026652 C25.5555556,10.9379962 26.2446049,10 27.4297697,10 L31.3435698,10 C32.5296238,10 33.1911111,10.8544212 33.1911111,11.9569001 L33.1911111,27.643219 C33.1911111,29.0222067 32.309128,29.7930528 31.1230741,29.7930528 C29.9379092,29.7930528 29.0559261,29.0222067 29.0559261,27.643219 L29.0559261,13.8044413 Z" id="Path" fill="#FFFFFF"></path>
            <g id="2795" transform="translate(4.444444, 11.111111)" fill="#FFFFFF">
                <path d="M16.1111111,7.22222222 L10.5555556,7.22222222 L10.5555556,1.66666667 C10.5555556,0.746111111 9.80944444,0 8.88888889,0 C7.96833333,0 7.22222222,0.746111111 7.22222222,1.66666667 L7.22222222,7.22222222 L1.66666667,7.22222222 C0.746111111,7.22222222 0,7.96833333 0,8.88888889 C0,9.80944444 0.746111111,10.5555556 1.66666667,10.5555556 L7.22222222,10.5555556 L7.22222222,16.1111111 C7.22222222,17.0316667 7.96833333,17.7777778 8.88888889,17.7777778 C9.80944444,17.7777778 10.5555556,17.0316667 10.5555556,16.1111111 L10.5555556,10.5555556 L16.1111111,10.5555556 C17.0316667,10.5555556 17.7777778,9.80944444 17.7777778,8.88888889 C17.7777778,7.96833333 17.0316667,7.22222222 16.1111111,7.22222222 Z" id="Path"></path>
            </g>
        </g>
        <g id="31-20e3-copy-4" transform="translate(-20.000000, -20.000000)" fill-rule="nonzero">
            <path d="M40,35.5555556 C40,38.01 38.01,40 35.5555556,40 L4.44444444,40 C1.99,40 0,38.01 0,35.5555556 L0,4.44444444 C0,1.99 1.99,0 4.44444444,0 L35.5555556,0 C38.01,0 40,1.99 40,4.44444444 L40,35.5555556 Z" id="Path" fill="#FDD835" opacity="0.8"></path>
            <path d="M29.0559261,13.8044413 L27.4297697,13.8044413 C26.106795,13.8044413 25.5555556,12.8397723 25.5555556,11.9026652 C25.5555556,10.9379962 26.2446049,10 27.4297697,10 L31.3435698,10 C32.5296238,10 33.1911111,10.8544212 33.1911111,11.9569001 L33.1911111,27.643219 C33.1911111,29.0222067 32.309128,29.7930528 31.1230741,29.7930528 C29.9379092,29.7930528 29.0559261,29.0222067 29.0559261,27.643219 L29.0559261,13.8044413 Z" id="Path" fill="#FFFFFF"></path>
            <g id="2795" transform="translate(4.444444, 11.111111)" fill="#FFFFFF">
                <path d="M16.1111111,7.22222222 L10.5555556,7.22222222 L10.5555556,1.66666667 C10.5555556,0.746111111 9.80944444,0 8.88888889,0 C7.96833333,0 7.22222222,0.746111111 7.22222222,1.66666667 L7.22222222,7.22222222 L1.66666667,7.22222222 C0.746111111,7.22222222 0,7.96833333 0,8.88888889 C0,9.80944444 0.746111111,10.5555556 1.66666667,10.5555556 L7.22222222,10.5555556 L7.22222222,16.1111111 C7.22222222,17.0316667 7.96833333,17.7777778 8.88888889,17.7777778 C9.80944444,17.7777778 10.5555556,17.0316667 10.5555556,16.1111111 L10.5555556,10.5555556 L16.1111111,10.5555556 C17.0316667,10.5555556 17.7777778,9.80944444 17.7777778,8.88888889 C17.7777778,7.96833333 17.0316667,7.22222222 16.1111111,7.22222222 Z" id="Path"></path>
            </g>
        </g>
    </g>
</svg>