<?xml version="1.0" encoding="UTF-8"?>
<svg width="150px" height="150px" viewBox="0 0 150 150" version="1.1" xmlns="http://www.w3.org/2000/svg" xmlns:xlink="http://www.w3.org/1999/xlink">
    <!-- Generator: Sketch 51.3 (57544) - http://www.bohemiancoding.com/sketch -->
    <title>star</title>
    <desc>Created with Sketch.</desc>
    <defs></defs>
    <g id="star" stroke="none" stroke-width="1" fill="none" fill-rule="evenodd">
        <rect fill="#FFFDE7" x="0" y="0" width="150" height="150"></rect>
        <polygon id="Star" fill="#FFF176" fill-rule="nonzero" points="75 92.5 54.4275162 103.315595 58.356511 80.4077974 41.7130219 64.1844052 64.7137581 60.8422026 75 40 85.2862419 60.8422026 108.286978 64.1844052 91.643489 80.4077974 95.5724838 103.315595"></polygon>
        <polygon id="Star" fill="#FFF176" fill-rule="nonzero" points="150 167.5 129.427516 178.315595 133.356511 155.407797 116.713022 139.184405 139.713758 135.842203 150 115 160.286242 135.842203 183.286978 139.184405 166.643489 155.407797 170.572484 178.315595"></polygon>
        <polygon id="Star" fill="#FFF176" fill-rule="nonzero" points="0 167.5 -20.5724838 178.315595 -16.643489 155.407797 -33.2869781 139.184405 -10.2862419 135.842203 -7.10542736e-15 115 10.2862419 135.842203 33.2869781 139.184405 16.643489 155.407797 20.5724838 178.315595"></polygon>
        <polygon id="Star" fill="#FFF176" fill-rule="nonzero" points="0 17.5 -20.5724838 28.3155948 -16.643489 5.4077974 -33.2869781 -10.8155948 -10.2862419 -14.1577974 -7.10542736e-15 -35 10.2862419 -14.1577974 33.2869781 -10.8155948 16.643489 5.4077974 20.5724838 28.3155948"></polygon>
        <polygon id="Star" fill="#FFF176" fill-rule="nonzero" points="150 17.5 129.427516 28.3155948 133.356511 5.4077974 116.713022 -10.8155948 139.713758 -14.1577974 150 -35 160.286242 -14.1577974 183.286978 -10.8155948 166.643489 5.4077974 170.572484 28.3155948"></polygon>
    </g>
</svg>