<?xml version="1.0" encoding="UTF-8"?>
<svg width="150px" height="150px" viewBox="0 0 150 150" version="1.1" xmlns="http://www.w3.org/2000/svg" xmlns:xlink="http://www.w3.org/1999/xlink">
    <!-- Generator: Sketch 55.2 (78181) - https://sketchapp.com -->
    <title>star.url</title>
    <desc>Created with Sketch.</desc>
    <g id="star.url" stroke="none" stroke-width="1" fill="none" fill-rule="evenodd">
        <rect fill="#FFFDEA" x="0" y="0" width="150" height="150"></rect>
        <polygon id="Star" fill="#FFEB3B" fill-rule="nonzero" points="150 14 133.542013 22.6524758 136.685209 4.32623792 123.370418 -8.65247584 141.771006 -11.3262379 150 -28 158.228994 -11.3262379 176.629582 -8.65247584 163.314791 4.32623792 166.457987 22.6524758"></polygon>
        <polygon id="Star-Copy" fill="#FFEB3B" fill-rule="nonzero" points="150 164 133.542013 172.652476 136.685209 154.326238 123.370418 141.347524 141.771006 138.673762 150 122 158.228994 138.673762 176.629582 141.347524 163.314791 154.326238 166.457987 172.652476"></polygon>
        <polygon id="Star-Copy-2" fill="#FFEB3B" fill-rule="nonzero" points="0 164 -16.4579871 172.652476 -13.3147912 154.326238 -26.6295825 141.347524 -8.22899353 138.673762 -7.10542736e-15 122 8.22899353 138.673762 26.6295825 141.347524 13.3147912 154.326238 16.4579871 172.652476"></polygon>
        <polygon id="Star-Copy-3" fill="#FFEB3B" fill-rule="nonzero" points="0 14 -16.4579871 22.6524758 -13.3147912 4.32623792 -26.6295825 -8.65247584 -8.22899353 -11.3262379 -7.10542736e-15 -28 8.22899353 -11.3262379 26.6295825 -8.65247584 13.3147912 4.32623792 16.4579871 22.6524758"></polygon>
        <polygon id="Star" fill="#FFEB3B" fill-rule="nonzero" points="75 89 58.5420129 97.6524758 61.6852088 79.3262379 48.3704175 66.3475242 66.7710065 63.6737621 75 47 83.2289935 63.6737621 101.629582 66.3475242 88.3147912 79.3262379 91.4579871 97.6524758"></polygon>
    </g>
</svg>