<?xml version="1.0" encoding="UTF-8"?>
<svg width="150px" height="150px" viewBox="0 0 150 150" version="1.1" xmlns="http://www.w3.org/2000/svg" xmlns:xlink="http://www.w3.org/1999/xlink">
    <!-- Generator: Sketch 52.2 (67145) - http://www.bohemiancoding.com/sketch -->
    <title>star.url</title>
    <desc>Created with Sketch.</desc>
    <g id="star.url" stroke="none" stroke-width="1" fill="none" fill-rule="evenodd">
        <rect fill="#FFF9C4" x="0" y="0" width="150" height="150"></rect>
        <polygon id="Star" fill="#FDD835" fill-rule="nonzero" points="75 95.5 54.4275162 106.315595 58.356511 83.4077974 41.7130219 67.1844052 64.7137581 63.8422026 75 43 85.2862419 63.8422026 108.286978 67.1844052 91.643489 83.4077974 95.5724838 106.315595"></polygon>
        <polygon id="Star" fill="#FDD835" fill-rule="nonzero" points="150 170.5 129.427516 181.315595 133.356511 158.407797 116.713022 142.184405 139.713758 138.842203 150 118 160.286242 138.842203 183.286978 142.184405 166.643489 158.407797 170.572484 181.315595"></polygon>
        <polygon id="Star" fill="#FDD835" fill-rule="nonzero" points="0 170.5 -20.5724838 181.315595 -16.643489 158.407797 -33.2869781 142.184405 -10.2862419 138.842203 -7.10542736e-15 118 10.2862419 138.842203 33.2869781 142.184405 16.643489 158.407797 20.5724838 181.315595"></polygon>
        <polygon id="Star" fill="#FDD835" fill-rule="nonzero" points="0 20.5 -20.5724838 31.3155948 -16.643489 8.4077974 -33.2869781 -7.8155948 -10.2862419 -11.1577974 -7.10542736e-15 -32 10.2862419 -11.1577974 33.2869781 -7.8155948 16.643489 8.4077974 20.5724838 31.3155948"></polygon>
        <polygon id="Star" fill="#FDD835" fill-rule="nonzero" points="150 20.5 129.427516 31.3155948 133.356511 8.4077974 116.713022 -7.8155948 139.713758 -11.1577974 150 -32 160.286242 -11.1577974 183.286978 -7.8155948 166.643489 8.4077974 170.572484 31.3155948"></polygon>
    </g>
</svg>