<?xml version="1.0" standalone="no"?>
<!DOCTYPE svg PUBLIC "-//W3C//DTD SVG 20010904//EN"
 "http://www.w3.org/TR/2001/REC-SVG-20010904/DTD/svg10.dtd">
<svg version="1.0" xmlns="http://www.w3.org/2000/svg"
 width="700.000000pt" height="700.000000pt" viewBox="0 0 700.000000 700.000000"
 preserveAspectRatio="xMidYMid meet">
<metadata>
Created by potrace 1.11, written by Peter Selinger 2001-2013
</metadata>
<g transform="translate(0.000000,700.000000) scale(0.100000,-0.100000)"
fill="#000000" stroke="none">
<path d="M3370 4145 c-67 -151 -128 -278 -134 -283 -6 -5 -132 -21 -281 -37
-148 -15 -285 -30 -304 -34 l-34 -7 231 -209 c221 -200 232 -211 226 -240 -3
-16 -31 -154 -63 -305 -32 -151 -57 -276 -56 -278 2 -2 125 66 274 152 l271
155 271 -155 c149 -86 272 -154 274 -152 1 2 -24 127 -56 278 -32 151 -60 289
-63 305 -6 29 5 40 226 240 l231 209 -34 7 c-19 4 -155 19 -304 34 -148 16
-275 32 -281 37 -6 5 -67 132 -134 283 -68 151 -126 275 -130 275 -4 0 -62
-124 -130 -275z"/>
</g>
</svg>
