<?xml version="1.0" standalone="no"?>
<!DOCTYPE svg PUBLIC "-//W3C//DTD SVG 20010904//EN"
 "http://www.w3.org/TR/2001/REC-SVG-20010904/DTD/svg10.dtd">
<svg version="1.0" xmlns="http://www.w3.org/2000/svg"
 width="700.000000pt" height="700.000000pt" viewBox="0 0 700.000000 700.000000"
 preserveAspectRatio="xMidYMid meet">
<metadata>
Created by potrace 1.11, written by Peter Selinger 2001-2013
</metadata>
<g transform="translate(0.000000,700.000000) scale(0.100000,-0.100000)"
fill="#000000" stroke="none">
<path d="M3285 6994 c-203 -20 -276 -28 -375 -45 -610 -105 -1195 -376 -1665
-772 -95 -81 -310 -294 -394 -392 -468 -542 -742 -1176 -833 -1925 -17 -137
-17 -583 0 -720 69 -569 227 -1028 514 -1491 145 -236 311 -440 525 -649 204
-200 371 -332 592 -468 463 -287 922 -445 1491 -514 137 -17 583 -17 720 0
569 69 1028 227 1491 514 360 222 692 528 958 882 323 430 549 960 640 1501
38 223 46 327 46 585 0 258 -8 362 -46 585 -105 627 -382 1216 -800 1700 -84
98 -299 311 -394 392 -518 437 -1148 710 -1845 798 -117 15 -536 28 -625 19z
m-500 -2239 c191 -31 390 -112 526 -215 67 -50 239 -223 259 -260 9 -17 -15
-39 -241 -215 l-252 -195 -92 89 c-143 139 -266 191 -449 191 -158 0 -293 -57
-399 -169 -35 -37 -75 -89 -90 -115 -125 -223 -122 -523 7 -743 72 -122 224
-235 354 -262 75 -16 218 -14 287 4 117 30 202 81 304 181 53 53 99 90 105 87
15 -10 423 -300 464 -330 l33 -24 -33 -42 c-205 -264 -424 -408 -728 -479
-124 -28 -401 -36 -535 -14 -532 88 -938 488 -1031 1016 -22 124 -22 345 0
466 95 541 496 935 1046 1029 105 18 355 18 465 0z m2059 5 c241 -18 436 -68
618 -161 104 -54 238 -143 238 -160 0 -5 -75 -115 -166 -244 l-165 -234 -67
43 c-204 131 -434 202 -632 194 -154 -6 -230 -58 -230 -158 0 -110 65 -147
427 -240 309 -79 413 -114 536 -178 256 -134 368 -313 368 -586 0 -132 -23
-240 -71 -341 -48 -101 -97 -164 -183 -236 -200 -168 -506 -245 -867 -219
-300 22 -559 99 -783 233 -94 56 -222 152 -222 167 0 5 83 108 184 229 164
197 186 220 202 209 146 -107 272 -174 403 -217 152 -49 193 -56 352 -56 148
0 151 1 209 30 65 34 95 76 95 136 0 97 -92 151 -392 228 -266 69 -374 101
-482 145 -240 97 -387 245 -442 446 -25 94 -23 289 4 391 88 326 381 542 783
578 134 12 130 12 283 1z"/>
</g>
</svg>
